<mxfile host="app.diagrams.net" agent="Mozilla/5.0 (Windows NT 10.0; Win64; x64) AppleWebKit/537.36 (KHTML, like Gecko) Chrome/131.0.0.0 Safari/537.36" version="25.0.3">
  <diagram id="prtHgNgQTEPvFCAcTncT" name="Page-1">
    <mxGraphModel dx="756" dy="400" grid="1" gridSize="10" guides="1" tooltips="1" connect="1" arrows="1" fold="1" page="1" pageScale="1" pageWidth="2339" pageHeight="3300" math="0" shadow="0">
      <root>
        <mxCell id="0" />
        <mxCell id="1" parent="0" />
        <mxCell id="TGuNfWbs7z0YhE9qhTbN-18" value="Pool" style="swimlane;childLayout=stackLayout;resizeParent=1;resizeParentMax=0;startSize=20;html=1;" vertex="1" parent="1">
          <mxGeometry x="1020.0000000000005" y="450" width="360" height="480" as="geometry" />
        </mxCell>
        <mxCell id="TGuNfWbs7z0YhE9qhTbN-19" value="Lane 1" style="swimlane;startSize=20;html=1;" vertex="1" parent="TGuNfWbs7z0YhE9qhTbN-18">
          <mxGeometry y="20" width="120" height="460" as="geometry">
            <mxRectangle y="20" width="40" height="460" as="alternateBounds" />
          </mxGeometry>
        </mxCell>
        <mxCell id="TGuNfWbs7z0YhE9qhTbN-20" value="Lane 2" style="swimlane;startSize=20;html=1;" vertex="1" parent="TGuNfWbs7z0YhE9qhTbN-18">
          <mxGeometry x="120" y="20" width="120" height="460" as="geometry" />
        </mxCell>
        <mxCell id="TGuNfWbs7z0YhE9qhTbN-21" value="Lane 3" style="swimlane;startSize=20;html=1;" vertex="1" parent="TGuNfWbs7z0YhE9qhTbN-18">
          <mxGeometry x="240" y="20" width="120" height="460" as="geometry" />
        </mxCell>
      </root>
    </mxGraphModel>
  </diagram>
</mxfile>
